<?xml version="1.0" encoding="utf-8"?>
<!-- Generator: Adobe Illustrator 22.1.0, SVG Export Plug-In . SVG Version: 6.00 Build 0)  -->
<svg version="1.1" id="Layer_1" xmlns="http://www.w3.org/2000/svg" xmlns:xlink="http://www.w3.org/1999/xlink" x="0px" y="0px"
	 viewBox="0 0 10 10" style="enable-background:new 0 0 10 10;" xml:space="preserve">
<style type="text/css">
	.st0{fill:#FFFFFF;}
</style>
<g>
	<g>
		<g>
			<path class="st0" d="M4.2,3.8c0-0.2-0.1-1.4-0.1-1.4l0,0l0,0L4,3.5c0,0,0,0,0,0c0,0,0,0,0,0L3.9,2.4l0,0l0,0L3.9,3.5c0,0,0,0,0,0
				c0,0,0,0,0,0L3.8,2.4l0,0l0,0L3.7,3.5c0,0,0,0,0,0c0,0,0,0,0,0L3.6,2.4l0,0l0,0c0,0-0.1,1.2-0.1,1.4c0,0,0,0,0,0
				c0.1,0,0.2,0.1,0.3,0.3c0.1,0.2-0.1,2.6-0.1,3.1c0,0.1,0,0.3,0.2,0.4l0,0C4,7.5,4.1,7.3,4.1,7.2c0-0.5-0.2-2.9-0.1-3.1
				C4,3.9,4.1,3.9,4.2,3.8C4.2,3.8,4.2,3.8,4.2,3.8z M3.7,7.2c0-0.1,0-0.1,0-0.1s0,0.2,0,0.3c0,0.1,0,0.2,0.1,0.3
				C3.7,7.5,3.7,7.3,3.7,7.2z M4.2,3.8C4.1,3.9,4,3.9,3.9,4.1C3.9,4.1,3.9,4,4.2,3.8C4.1,3.8,4.2,3.8,4.2,3.8c0-0.1,0-0.2,0-0.4
				C4.2,3.6,4.2,3.7,4.2,3.8C4.2,3.8,4.2,3.8,4.2,3.8z"/>
		</g>
		<path class="st0" d="M5.5,4.1c0.2-0.2,0.3-0.5,0.3-0.8c0-0.5-0.3-0.9-0.6-0.9c-0.3,0-0.6,0.4-0.6,0.9c0,0.3,0.1,0.6,0.3,0.8
			c0,0,0,0,0,0c0,0,0,0,0,0c0.1,0,0.2,0.1,0.3,0.3C5.2,4.6,5,6.7,4.9,7.2c0,0.1,0,0.3,0.2,0.4h0c0.2-0.1,0.2-0.3,0.2-0.4
			c0-0.5-0.2-2.6-0.1-2.8C5.3,4.2,5.4,4.2,5.5,4.1C5.5,4.1,5.5,4.1,5.5,4.1C5.5,4.1,5.5,4.1,5.5,4.1z M4.8,4.1
			C4.8,4.1,4.8,4.1,4.8,4.1C4.8,4.1,4.8,4.1,4.8,4.1C4.7,3.9,4.6,3.6,4.6,3.3c0,0.3,0.1,0.5,0.3,0.7C4.8,4,4.8,4,4.8,4.1
			C4.8,4.1,4.9,4.1,4.8,4.1C5,4.2,5.1,4.3,5.1,4.4C5,4.2,4.9,4.1,4.8,4.1z M5.3,7.3c0-0.1,0-0.3,0-0.3s0,0,0,0.1
			c0,0.1,0,0.3-0.2,0.4C5.3,7.4,5.3,7.4,5.3,7.3z M5.5,4.1c0,0-0.1,0-0.2,0.1C5.3,4.2,5.4,4.1,5.5,4.1C5.5,4.1,5.5,4.1,5.5,4.1
			C5.5,4.1,5.5,4.1,5.5,4.1z M5.1,2.4C5.1,2.4,5.1,2.4,5.1,2.4c0.4,0,0.6,0.4,0.6,0.9c0,0.2,0,0.4-0.1,0.5c0.1-0.1,0.1-0.3,0.1-0.5
			C5.7,2.8,5.5,2.4,5.1,2.4z"/>
		<g>
			<path class="st0" d="M6.5,7.2c0-0.3-0.1-1.3,0-2.3c0.1-1,0.1-2.1,0.1-2.3c0-0.2-0.1-0.2-0.3,0C6,2.9,5.9,4.2,6.2,4.8c0,0,0,0,0,0
				c0.1,0.3,0,1.8-0.1,2.3c0,0.1,0,0.3,0.2,0.4l0,0C6.4,7.5,6.5,7.3,6.5,7.2z M6.2,2.7C6.2,2.7,6.2,2.6,6.2,2.7
				c0.1-0.2,0.2-0.3,0.3-0.3c-0.1,0-0.1,0-0.2,0.1C6.2,2.6,6.2,2.7,6.2,2.7z M6.2,4.9C6.2,4.9,6.2,4.8,6.2,4.9
				C6.2,4.8,6.2,4.8,6.2,4.9l0.2,0c0,0,0,0,0,0L6.2,4.9z M6.3,7.6c0.1-0.1,0.1-0.2,0.1-0.3c0-0.1,0-0.3,0-0.3s0,0,0,0.1
				C6.5,7.3,6.4,7.4,6.3,7.6z"/>
		</g>
	</g>
	<path class="st0" d="M5,9C4.5,9,3.9,8.9,3.4,8.7C3,8.5,2.5,8.2,2.2,7.8C1.8,7.5,1.5,7,1.3,6.6C1.1,6.1,1,5.5,1,5
		c0-0.5,0.1-1.1,0.3-1.6C1.5,3,1.8,2.5,2.2,2.2C2.5,1.8,3,1.5,3.4,1.3C3.9,1.1,4.5,1,5,1s1.1,0.1,1.6,0.3C7,1.5,7.5,1.8,7.8,2.2
		C8.2,2.5,8.5,3,8.7,3.4C8.9,3.9,9,4.5,9,5c0,0.5-0.1,1.1-0.3,1.6C8.5,7,8.2,7.5,7.8,7.8C7.5,8.2,7,8.5,6.6,8.7C6.1,8.9,5.5,9,5,9z
		 M5,1.4C3,1.4,1.4,3,1.4,5C1.4,7,3,8.6,5,8.6C7,8.6,8.6,7,8.6,5C8.6,3,7,1.4,5,1.4z"/>
</g>
</svg>
